<?xml version="1.0" encoding="UTF-8" standalone="no"?>
<svg
   width="296"
   height="184"
   version="1.1"
   id="svg9"
   sodipodi:docname="debugging.svg"
   xml:space="preserve"
   inkscape:version="1.3 (0e150ed6c4, 2023-07-21)"
   inkscape:export-filename="debugging.png"
   inkscape:export-xdpi="96"
   inkscape:export-ydpi="96"
   xmlns:inkscape="http://www.inkscape.org/namespaces/inkscape"
   xmlns:sodipodi="http://sodipodi.sourceforge.net/DTD/sodipodi-0.dtd"
   xmlns="http://www.w3.org/2000/svg"
   xmlns:svg="http://www.w3.org/2000/svg"
   xmlns:rdf="http://www.w3.org/1999/02/22-rdf-syntax-ns#"
   xmlns:cc="http://creativecommons.org/ns#"
   xmlns:dc="http://purl.org/dc/elements/1.1/"><title
     id="title49">Dubugging Thumbnail</title><defs
     id="defs9"><filter
       style="color-interpolation-filters:sRGB;"
       inkscape:label="Drop Shadow"
       id="filter37"
       x="-0.015005072"
       y="-0.014805767"
       width="1.0402631"
       height="1.0397338"><feFlood
         result="flood"
         in="SourceGraphic"
         flood-opacity="0.631373"
         flood-color="rgb(161,161,161)"
         id="feFlood36" /><feGaussianBlur
         result="blur"
         in="SourceGraphic"
         stdDeviation="0.000000"
         id="feGaussianBlur36" /><feOffset
         result="offset"
         in="blur"
         dx="1.400000"
         dy="1.400000"
         id="feOffset36" /><feComposite
         result="comp1"
         operator="in"
         in="flood"
         in2="offset"
         id="feComposite36" /><feComposite
         result="comp2"
         operator="over"
         in="SourceGraphic"
         in2="comp1"
         id="feComposite37" /></filter><filter
       style="color-interpolation-filters:sRGB;"
       inkscape:label="Drop Shadow"
       id="filter43"
       x="-0.046146268"
       y="-0.046146268"
       width="1.1084371"
       height="1.1084371"><feFlood
         result="flood"
         in="SourceGraphic"
         flood-opacity="0.631373"
         flood-color="rgb(149,0,0)"
         id="feFlood42" /><feGaussianBlur
         result="blur"
         in="SourceGraphic"
         stdDeviation="0.000000"
         id="feGaussianBlur42" /><feOffset
         result="offset"
         in="blur"
         dx="1.400000"
         dy="1.400000"
         id="feOffset42" /><feComposite
         result="comp1"
         operator="in"
         in="flood"
         in2="offset"
         id="feComposite42" /><feComposite
         result="fbSourceGraphic"
         operator="over"
         in="SourceGraphic"
         in2="comp1"
         id="feComposite43" /><feColorMatrix
         result="fbSourceGraphicAlpha"
         in="fbSourceGraphic"
         values="0 0 0 -1 0 0 0 0 -1 0 0 0 0 -1 0 0 0 0 1 0"
         id="feColorMatrix43" /><feFlood
         id="feFlood43"
         result="flood"
         in="fbSourceGraphic"
         flood-opacity="0.631373"
         flood-color="rgb(149,0,0)" /><feGaussianBlur
         id="feGaussianBlur43"
         result="blur"
         in="fbSourceGraphic"
         stdDeviation="0.000000" /><feOffset
         id="feOffset43"
         result="offset"
         in="blur"
         dx="1.400000"
         dy="1.400000" /><feComposite
         id="feComposite44"
         result="comp1"
         operator="in"
         in="flood"
         in2="offset" /><feComposite
         id="feComposite45"
         result="comp2"
         operator="over"
         in="fbSourceGraphic"
         in2="comp1" /></filter><filter
       style="color-interpolation-filters:sRGB"
       inkscape:label="Drop Shadow"
       id="filter37-5"
       x="0"
       y="-0.0093383366"
       width="1.0188985"
       height="1.0332366"><feFlood
         result="flood"
         in="SourceGraphic"
         flood-opacity="0.631373"
         flood-color="rgb(161,161,161)"
         id="feFlood36-5" /><feGaussianBlur
         result="blur"
         in="SourceGraphic"
         stdDeviation="0.000000"
         id="feGaussianBlur36-3" /><feOffset
         result="offset"
         in="blur"
         dx="1.400000"
         dy="1.400000"
         id="feOffset36-7" /><feComposite
         result="comp1"
         operator="in"
         in="flood"
         in2="offset"
         id="feComposite36-3" /><feComposite
         result="comp2"
         operator="over"
         in="SourceGraphic"
         in2="comp1"
         id="feComposite37-9" /></filter></defs><sodipodi:namedview
     id="namedview9"
     pagecolor="#ffffff"
     bordercolor="#000000"
     borderopacity="0.25"
     inkscape:showpageshadow="2"
     inkscape:pageopacity="0.0"
     inkscape:pagecheckerboard="0"
     inkscape:deskcolor="#d1d1d1"
     inkscape:zoom="0.70710678"
     inkscape:cx="-101.11627"
     inkscape:cy="238.29498"
     inkscape:window-width="1350"
     inkscape:window-height="1041"
     inkscape:window-x="130"
     inkscape:window-y="0"
     inkscape:window-maximized="0"
     inkscape:current-layer="svg9" /><g
     inkscape:groupmode="layer"
     id="layer2"
     inkscape:label="background"
     transform="matrix(0.63736033,0,0,0.63736033,-53.593497,-5.1825489)"><path
       fill="#9966ff"
       d="M 0,300 V 0 h 600 v 300 z"
       style="display:inline;mix-blend-mode:normal;fill:#006481;fill-opacity:1;stroke-linejoin:miter;stroke-miterlimit:10;stroke-dasharray:none;stroke-dashoffset:0"
       id="path2"
       inkscape:export-filename="path2.png"
       inkscape:export-xdpi="96"
       inkscape:export-ydpi="96" /><path
       fill="#ffffff"
       fill-opacity="0.733"
       d="m 392.06322,304.0997 c -6.898,-22.603 -76.685,-34.962 -77.948,-54.676 -1.264,-19.715 70.877,24.007 76.037,12.423 5.16,-11.584 -74.504,-70.097 -116.666,-87.202 -25.406,-10.306 -45.449,4.259 -16.197,26.802 19.57,15.082 10.36,28.041 -7.647,19.177 -18.008,-8.866 -27.588,13.998 -2.71,33.538 24.876,19.54 152.934,75.519 145.13,49.938 z m -189.335,-58.201 c -19.319,-28.824 -56.251,-10.843 -32.843,19.383 20.714,26.74 87.243,54.453 90.495,39.57 2.387,-10.93 -34.924,-25.04 -57.652,-58.953 z m -158.873009,58.173 c 31.45,30.51 58.013999,60.244 76.720999,59.324 19.43701,-0.956 2.07601,-38.155 -30.926999,-66.69 -23.382,-20.218 -0.548,-30.477 21.875999,-18.406 27.09801,14.588 48.22101,4.827 13.24801,-27.159 -34.973009,-31.987 -88.076009,-55.525 -117.0430096,-49.49 -28.9639994,6.035 40.6860006,24.468 43.4500006,48.884 2.715,23.992 -39.526,-24.442 -61.55,-8.33 -21.378,15.637 25.016,33.533 54.226,61.867 z m 352.456009,-90.707 c -3.551,17.372 39.795,72.106 92.952,86.536 53.431,14.506 103.668,20.146 105.823,7.6 2.14,-12.472 -31.75,-21.893 -73.85,-42.078 -20.354,-9.758 1.181,-17.982 14.432,-12.71 43.828,17.432 40.404,-9.208 3.4,-27.99 -28.915,-14.677 -53.372,-22.376 -67.86,-25.908 -21.015,-5.123 -25.395,8.45 -13.397,16.11 23.418,14.95 12.157,28.75 -8.806,17.15 -13.278,-7.349 -46.948,-46.807 -52.694,-18.71 z m -19.557,-14.928 c 12.426,4.974 15.65,-4.143 15.65,-11.508 0,-7.368 -12.428,-10.129 -19.334,-5.986 -6.905,4.143 -4.97,14.032 3.684,17.494 z M 27.050211,167.0157 c 4.74,10.969 57.872,12.722 97.381009,48.154 14.215,12.748 31.64,-2.824 27.503,-14.774 -4.134,-11.95 -16.768,-15.1 -36.54401,-22.787 -19.772999,-7.69 5.371,-17.939 37.99801,-2.543 18.663,8.805 38.66,-6.038 16.125,-21.324 -18.835,-12.776 -62.23501,-16.439 -61.05001,-27.398 0.657,-6.086 32.16201,8.555 37.88701,-4.566 4.759,-10.904 -6.519,-23.434999 -38.03301,-25.979999 -32.106999,-2.591001 -57.076999,4.012 -57.449999,19.784999 -0.424,17.856 37.245,22.695 20.32,28.215 -17.02,5.548 -52.49,3.88 -44.137,23.217 z m 190.696009,38.211 c 6.345,-4.412 6.542,-10.039 -0.202,-17.845 -8.744,-10.123 -23.336,-9.652 -27.622,-5.95 -4.285,3.702 5.403,13.289 9.102,18.812 3.7,5.522 10.552,10.663 18.722,4.983 z m -0.39,-60.812 c 37.62,8.994 58.788,-6.084 50.362,-16.385 -9.102,-11.124 -30.888,-11.099 -32.6,-32.877999 -3.199,-40.752001 -43.285,-47.963001 -26.18,-19.513001 5.99,9.968 -2.807,16.284 -7.964,3.54 -3.114,-7.691 -17.882,-18.246 -25.686,-22.149 -35.42,-17.709 -63.66001,8.02 -38.327,15.171 16.484,4.653 31.294,15.842 40.754,41.467 5.04,13.655 23.117,26.796 39.64,30.747 z M 105.26421,61.8337 c 14.26,-18.23 -29.793999,-19.25 -46.062999,-24.726 -16.27,-5.477 17.257,-8.257 46.751999,-7.95 29.49701,0.306 25.03301,-22.3469998 -8.491999,-33.4439998 -51.508,-17.0470002 -97.42400059,0.656 -57.955,11.967 14.72,4.2209998 4.257,16.3959998 -12.082,14.6399998 -30.8550006,-3.317 -53.723,11.912 -48.53,23.81 5.86,13.426 20.35999941,4.387 35.023,3.384 14.663,-1.005 1.97,13.368 -17.0170006,23.264 -32.6139994,16.998 -5.33,45.91 22.6760006,19.773 39.901,-37.24 75.01,-17.068 85.686999,-30.718 z m 147.94001,-44.197 c -21.055,-42.995 -64.284,-38.771 -58.215,-24.0949998 6.068,14.676 -18.895,2.72 -30.458,5.396 -11.562,2.673 -18.418,22.7729998 24.515,26.6409998 52.895,4.77 54.132,56.946 71.796,46.051 12.147,-7.489 0.167,-38.056 -7.638,-53.994 z m 315.783,194.573 c 35.264,6.061 43.074,-6.082 28.392,-15.8 -9.104,-6.03 -44.558,-25.255 -18.664,-27.138 25.897,-1.884 6.597,-26.505 -23.815,-49.426 -30.411,-22.921999 -96.852,-35.305 -93.95,-15.974 2.906,19.33 81.145,28.605 67.056,49.005 -6.119,8.861 -36.046,-27.889 -49.332,-6.744 -13.287,21.146 68.206,62.28 90.312,66.077 z m -229.523,-36.223 c 11.256,9.529 34.276,-4.232 13.57,-23.116 -4.793,-4.371 -17.112,-8.557 -9.752,-12.871 22.235,-13.033 90.004,54.665 101.215,32.455 5.39,-10.68 -21.638,-34.564 -51.14,-49.484 -21.779,-11.014 -13.838,-31.192 18.487,-11.311 32.326,19.882 38.03,-3.553 20.123,-18.934 -17.906,-15.379 -132.308,-68.645 -140.102,-40.18 -6.067,22.14 57.85,18.085 49.896,32.389 -5.839,10.496001 -50.291,-17.374 -66.026,0.726 -15.229,17.513 41.775,29.116 38.125,39.617 -2.882,8.286 -30.159,-3.39 -30.687,16.896 -0.409,15.721 29.048,10.757 56.29,33.813 z m 158.145,-141.526 c 6.843,35.997 70.248,69.556 94.575,78.58 38.277,14.191 78.274,9.46 55.695,-2.152 -22.578,-11.613999 -81.928,-50.07 -51.38,-52.71 15.034,-1.3 32.027,-12.453 0,-38.906 -20.331,-16.7939998 -91.188,-40 -95.058,-25.1619998 -3.87,14.839 81.281,40.6459998 54.833,43.2279998 -26.448,2.58 -61.863,-19.711 -58.665,-2.878 z m -93.37,12.92 c 20.66,10.328 39.767,22.835 61.76,27.556 28.684,6.156 0.393,-32.654 -27.142,-45.245 -12.332,-5.638 2.435,-13.153 14.302,-7.392 32.247,15.654 46.272,3.628 12.971,-18.5189998 -8.279,-5.507 -33.859,-18.5440002 -64.92,-22.5260002 -31.355,-4.023 -30.54,7.52 -20.837,11.8480002 13.953,6.22199998 23.511,19.7109998 -13.899,8.318 -66.874,-20.3650002 -106.489,-16.9740002 -91.265,0 14.22,15.8509998 62.156,12.5349998 129.03,45.9599998 z"
       data-paper-data="{&quot;index&quot;:null}"
       opacity="0.1"
       style="display:inline;mix-blend-mode:normal;fill:#000000;fill-opacity:0.733;fill-rule:evenodd;stroke:none;stroke-width:1;stroke-linecap:butt;stroke-linejoin:miter;stroke-miterlimit:10;stroke-dasharray:none;stroke-dashoffset:0"
       id="path4" /><path
       fill="#ffffff"
       fill-opacity="0.541"
       d="m 392.06322,304.0997 c -6.898,-22.603 -76.685,-34.962 -77.948,-54.676 -1.264,-19.715 70.877,24.007 76.037,12.423 5.16,-11.584 -74.504,-70.097 -116.666,-87.202 -25.406,-10.306 -45.449,4.259 -16.197,26.802 19.57,15.082 10.36,28.041 -7.647,19.177 -18.008,-8.866 -27.588,13.998 -2.71,33.538 24.876,19.54 152.934,75.519 145.13,49.938 z m -189.335,-58.201 c -19.319,-28.824 -56.251,-10.843 -32.843,19.383 20.714,26.74 87.243,54.453 90.495,39.57 2.387,-10.93 -34.924,-25.04 -57.652,-58.953 z m -158.873009,58.173 c 31.45,30.51 58.013999,60.244 76.720999,59.324 19.43701,-0.956 2.07601,-38.155 -30.926999,-66.69 -23.382,-20.218 -0.548,-30.477 21.875999,-18.406 27.09801,14.588 48.22101,4.827 13.24801,-27.159 -34.973009,-31.987 -88.076009,-55.525 -117.0430096,-49.49 -28.9639994,6.035 40.6860006,24.468 43.4500006,48.884 2.715,23.992 -39.526,-24.442 -61.55,-8.33 -21.378,15.637 25.016,33.533 54.226,61.867 z m 352.456009,-90.707 c -3.551,17.372 39.795,72.106 92.952,86.536 53.431,14.506 103.668,20.146 105.823,7.6 2.14,-12.472 -31.75,-21.893 -73.85,-42.078 -20.354,-9.758 1.181,-17.982 14.432,-12.71 43.828,17.432 40.404,-9.208 3.4,-27.99 -28.915,-14.677 -53.372,-22.376 -67.86,-25.908 -21.015,-5.123 -25.395,8.45 -13.397,16.11 23.418,14.95 12.157,28.75 -8.806,17.15 -13.278,-7.349 -46.948,-46.807 -52.694,-18.71 z m -19.557,-14.928 c 12.426,4.974 15.65,-4.143 15.65,-11.508 0,-7.368 -12.428,-10.129 -19.334,-5.986 -6.905,4.143 -4.97,14.032 3.684,17.494 z M 27.050211,167.0157 c 4.74,10.969 57.872,12.722 97.381009,48.154 14.215,12.748 31.64,-2.824 27.503,-14.774 -4.134,-11.95 -16.768,-15.1 -36.54401,-22.787 -19.772999,-7.69 5.371,-17.939 37.99801,-2.543 18.663,8.805 38.66,-6.038 16.125,-21.324 -18.835,-12.776 -62.23501,-16.439 -61.05001,-27.398 0.657,-6.086 32.16201,8.555 37.88701,-4.566 4.759,-10.904 -6.519,-23.434999 -38.03301,-25.979999 -32.106999,-2.591001 -57.076999,4.012 -57.449999,19.784999 -0.424,17.856 37.245,22.695 20.32,28.215 -17.02,5.548 -52.49,3.88 -44.137,23.217 z m 190.696009,38.211 c 6.345,-4.412 6.542,-10.039 -0.202,-17.845 -8.744,-10.123 -23.336,-9.652 -27.622,-5.95 -4.285,3.702 5.403,13.289 9.102,18.812 3.7,5.522 10.552,10.663 18.722,4.983 z m -0.39,-60.812 c 37.62,8.994 58.788,-6.084 50.362,-16.385 -9.102,-11.124 -30.888,-11.099 -32.6,-32.877999 -3.199,-40.752001 -43.285,-47.963001 -26.18,-19.513001 5.99,9.968 -2.807,16.284 -7.964,3.54 -3.114,-7.691 -17.882,-18.246 -25.686,-22.149 -35.42,-17.709 -63.66001,8.02 -38.327,15.171 16.484,4.653 31.294,15.842 40.754,41.467 5.04,13.655 23.117,26.796 39.64,30.747 z M 105.26421,61.8337 c 14.26,-18.23 -29.793999,-19.25 -46.062999,-24.726 -16.27,-5.477 17.257,-8.257 46.751999,-7.95 29.49701,0.306 25.03301,-22.3469998 -8.491999,-33.4439998 -51.508,-17.0470002 -97.42400059,0.656 -57.955,11.967 14.72,4.2209998 4.257,16.3959998 -12.082,14.6399998 -30.8550006,-3.317 -53.723,11.912 -48.53,23.81 5.86,13.426 20.35999941,4.387 35.023,3.384 14.663,-1.005 1.97,13.368 -17.0170006,23.264 -32.6139994,16.998 -5.33,45.91 22.6760006,19.773 39.901,-37.24 75.01,-17.068 85.686999,-30.718 z m 147.94001,-44.197 c -21.055,-42.995 -64.284,-38.771 -58.215,-24.0949998 6.068,14.676 -18.895,2.72 -30.458,5.396 -11.562,2.673 -18.418,22.7729998 24.515,26.6409998 52.895,4.77 54.132,56.946 71.796,46.051 12.147,-7.489 0.167,-38.056 -7.638,-53.994 z m 315.783,194.573 c 35.264,6.061 43.074,-6.082 28.392,-15.8 -9.104,-6.03 -44.558,-25.255 -18.664,-27.138 25.897,-1.884 6.597,-26.505 -23.815,-49.426 -30.411,-22.921999 -96.852,-35.305 -93.95,-15.974 2.906,19.33 81.145,28.605 67.056,49.005 -6.119,8.861 -36.046,-27.889 -49.332,-6.744 -13.287,21.146 68.206,62.28 90.312,66.077 z m -229.523,-36.223 c 11.256,9.529 34.276,-4.232 13.57,-23.116 -4.793,-4.371 -17.112,-8.557 -9.752,-12.871 22.235,-13.033 90.004,54.665 101.215,32.455 5.39,-10.68 -21.638,-34.564 -51.14,-49.484 -21.779,-11.014 -13.838,-31.192 18.487,-11.311 32.326,19.882 38.03,-3.553 20.123,-18.934 -17.906,-15.379 -132.308,-68.645 -140.102,-40.18 -6.067,22.14 57.85,18.085 49.896,32.389 -5.839,10.496001 -50.291,-17.374 -66.026,0.726 -15.229,17.513 41.775,29.116 38.125,39.617 -2.882,8.286 -30.159,-3.39 -30.687,16.896 -0.409,15.721 29.048,10.757 56.29,33.813 z m 158.145,-141.526 c 6.843,35.997 70.248,69.556 94.575,78.58 38.277,14.191 78.274,9.46 55.695,-2.152 -22.578,-11.613999 -81.928,-50.07 -51.38,-52.71 15.034,-1.3 32.027,-12.453 0,-38.906 -20.331,-16.7939998 -91.188,-40 -95.058,-25.1619998 -3.87,14.839 81.281,40.6459998 54.833,43.2279998 -26.448,2.58 -61.863,-19.711 -58.665,-2.878 z m -93.37,12.92 c 20.66,10.328 39.767,22.835 61.76,27.556 28.684,6.156 0.393,-32.654 -27.142,-45.245 -12.332,-5.638 2.435,-13.153 14.302,-7.392 32.247,15.654 46.272,3.628 12.971,-18.5189998 -8.279,-5.507 -33.859,-18.5440002 -64.92,-22.5260002 -31.355,-4.023 -30.54,7.52 -20.837,11.8480002 13.953,6.22199998 23.511,19.7109998 -13.899,8.318 -66.874,-20.3650002 -106.489,-16.9740002 -91.265,0 14.22,15.8509998 62.156,12.5349998 129.03,45.9599998 z"
       data-paper-data="{&quot;index&quot;:null}"
       opacity="0.1"
       style="display:inline;mix-blend-mode:normal;fill:#000000;fill-opacity:0.541;fill-rule:evenodd;stroke:none;stroke-width:1;stroke-linecap:butt;stroke-linejoin:miter;stroke-miterlimit:10;stroke-dasharray:none;stroke-dashoffset:0"
       id="path5" /></g><path
     d="m 189.53984,96.798988 18.79886,3.402812 7.9395,-13.760612 -6.22963,-3.591481 -5.40835,9.376533 -15.57156,-2.81821 -8.90101,-5.139011 3.47793,-6.023953 c 0.002,-0.0032 0.007,-0.01243 0.01,-0.01657 2.63421,-4.562601 3.42464,-9.680452 2.597,-14.498086 l 0.008,0.04347 13.27223,-3.601908 8.33641,4.813013 3.59538,-6.227376 -10.92697,-6.308698 -16.61264,4.507482 c -1.79494,-3.372303 -4.60416,-6.378077 -8.25757,-8.487374 -3.57866,-2.066141 -7.50011,-3.001682 -11.35001,-2.910599 l 0.10941,0.0018 -4.27517,-16.439752 -10.93176,-6.300431 -3.59148,6.229638 8.32456,4.795163 3.38718,13.02097 c -4.63345,1.659127 -8.75793,4.929552 -11.43531,9.56688 -0.002,0.0033 -0.007,0.0125 -0.01,0.01656 v 0 l -3.48272,6.032261 -8.41527,-4.858558 -10.32606,-12.13379 5.41211,-9.374041 -6.22712,-3.595219 -7.94819,13.766673 12.37448,14.539774 -9.51817,16.485956 -15.56846,-8.988457 -3.595397,6.227386 15.568477,8.988457 -0.90125,1.560998 c -0.004,0.0081 -0.012,0.02071 -0.0192,0.03327 -2.20996,3.827769 -3.63312,7.893911 -4.32278,12.012661 l 0.054,-0.25662 -21.342857,-3.349329 -7.91463,13.70854 6.22739,3.59538 5.4458,-9.4324 17.064067,2.67798 c 0.39055,12.17101 6.78422,23.69505 17.94369,30.13798 8.62284,4.9784 18.45563,5.97237 27.36115,3.55807 v 0 c 2.63249,-0.70538 5.18843,-1.70958 7.60886,-2.99685 l 0.15558,-0.0873 10.82505,13.44594 -5.4482,9.43656 6.22738,3.59539 7.91225,-13.7044 -13.54345,-16.81996 c 3.00487,-2.47207 5.79852,-5.71929 7.99411,-9.52214 0.024,-0.0415 0.0479,-0.083 0.072,-0.12455 l -0.004,0.008 0.87488,-1.51534 15.56847,8.98847 3.59538,-6.22738 -15.56847,-8.98848 z M 152.11826,60.043096 c 4.03402,-6.987123 12.96619,-9.380499 19.95332,-5.346473 6.98713,4.034015 9.38049,12.96619 5.34647,19.953316 v 0 l -3.48033,6.028116 -25.30204,-14.602952 z M 119.49295,88.68998 132.97803,65.33314 154.76558,77.912185 126.99724,126.00835 C 115.60832,117.41252 112.15598,101.398 119.49295,88.68998 Z m 49.83826,28.72984 c 0,0 0,0 0,0 -7.31541,12.67065 -22.80115,17.69035 -35.9659,12.23744 l -0.13176,-0.0595 27.76115,-48.08372 21.80476,12.577975 z"
     id="path1-6"
     style="display:inline;fill:#ffffff;fill-opacity:1;stroke:#ffffff;stroke-width:3;stroke-dasharray:none;stroke-opacity:1;filter:url(#filter37)" /><g
     inkscape:groupmode="layer"
     id="layer1"
     inkscape:label="Crossout"
     transform="matrix(0.63736033,0,0,0.63736033,-43.208099,-3.6040495)"
     style="display:inline;filter:url(#filter43)"><path
       style="fill:none;fill-opacity:1;stroke:#ff0022;stroke-width:16.0066;stroke-linecap:round;stroke-linejoin:round;stroke-dasharray:none;stroke-opacity:1;paint-order:stroke fill markers"
       d="m 218.86444,174.68997 162.29341,-49.38687 -0.28501,0.10022"
       id="path6" /><circle
       style="fill:none;fill-opacity:1;stroke:#ff0022;stroke-width:16.0066;stroke-linecap:round;stroke-linejoin:round;stroke-dasharray:none;stroke-opacity:1;paint-order:stroke fill markers"
       id="path1"
       cx="300"
       cy="150"
       r="86.716652" /></g><path
     style="fill:#ffffff;fill-opacity:1;stroke:none;stroke-width:16.0066;stroke-linecap:round;stroke-linejoin:round;stroke-dasharray:none;stroke-opacity:1;paint-order:stroke fill markers"
     d="m 320.55779,220.02541 14.79923,18.27825 -8.92202,15.45339 13.85193,7.99741 14.40192,-24.94485 -20.82113,-25.87714 z"
     id="path45"
     transform="matrix(0.63736033,0,0,0.63736033,-43.208099,-3.6040495)" /><path
     style="fill:#ffffff;fill-opacity:1;stroke:none;stroke-width:10.202;stroke-linecap:round;stroke-linejoin:round;stroke-dasharray:none;stroke-opacity:1;paint-order:stroke fill markers"
     d="m 107.76563,95.183594 -20.914068,-3.289063 -9.1796,15.899539 8.835193,5.101 3.140773,-5.43998 C 88.484573,102.60642 87.65141,97.960478 87.625,92.011719 l -4.006203,14.906251 15.162453,-5.27344 9.35084,-2.837406 z"
     id="path46"
     sodipodi:nodetypes="cccccccccc" /><path
     style="fill:#ffffff;fill-opacity:1;stroke:none;stroke-width:10.202;stroke-linecap:round;stroke-linejoin:round;stroke-dasharray:none;stroke-opacity:1;paint-order:stroke fill markers"
     d="m 190.3125,98.46875 18.79687,3.39453 9.2225,-15.973836 -8.83968,-5.092569 -5.62786,9.76984 -14.27839,-2.590153 z"
     id="path47"
     sodipodi:nodetypes="ccccccc" /><path
     style="fill:#ffffff;fill-opacity:1;stroke:none;stroke-width:10.202;stroke-linecap:round;stroke-linejoin:round;stroke-dasharray:none;stroke-opacity:1;paint-order:stroke fill markers"
     d="M 125.16211,60.655142 112.82391,46.07384 122.04642,30.1 l 8.83015,5.109103 -5.647,9.75879 9.38234,11.070372 z"
     id="path47-7"
     sodipodi:nodetypes="ccccccc" /><path
     style="fill:#ffffff;fill-opacity:1;stroke:none;stroke-width:10.202;stroke-linecap:round;stroke-linejoin:round;stroke-dasharray:none;stroke-opacity:1;paint-order:stroke fill markers"
     d="m 182.07812,112.71875 15.57156,8.99024 -5.10333,8.83923 -15.56963,-8.98913 z"
     id="path48" /><path
     style="fill:#ffffff;fill-opacity:1;stroke:none;stroke-width:10.202;stroke-linecap:round;stroke-linejoin:round;stroke-dasharray:none;stroke-opacity:1;paint-order:stroke fill markers"
     d="m 101.64837,66.272729 15.57156,8.99024 -5.10333,8.83923 -15.569636,-8.98913 z"
     id="path48-7" /><path
     style="fill:#ffffff;fill-opacity:1;stroke:none;stroke-width:10.202;stroke-linecap:round;stroke-linejoin:round;stroke-dasharray:none;stroke-opacity:1;paint-order:stroke fill markers"
     d="m 155.5625,45.953125 -2.89844,-11.125 -9.08984,-5.230469 5.1012,-8.835541 12.77072,7.373176 4.1437,15.931115 c 9.16422,0.487614 14.81552,4.587678 19.06641,11.125 l 16.10156,-4.359375 12.76195,7.368115 -5.09943,8.832469 -9.09339,-5.250074 -11.40116,3.100271 z"
     id="path49"
     sodipodi:nodetypes="ccccccccccccc" /><metadata
     id="metadata49"><rdf:RDF><cc:Work
         rdf:about=""><dc:description>Created with Inkscape.&#10;Bug icon by CoreUI. &lt;https://github.com/coreui/coreui-icons&gt;</dc:description><dc:subject><rdf:Bag><rdf:li>debugger</rdf:li><rdf:li>thumbnail</rdf:li><rdf:li>scratch</rdf:li><rdf:li>penguinmod</rdf:li></rdf:Bag></dc:subject><dc:date>2025 May 12</dc:date><dc:title>Dubugging Thumbnail</dc:title><dc:creator><cc:Agent><dc:title>Steve0Greatness</dc:title></cc:Agent></dc:creator><dc:rights><cc:Agent><dc:title>(C) 2025 Steve0Greatness</dc:title></cc:Agent></dc:rights><cc:license
           rdf:resource="https://opensource.org/license/mit" /></cc:Work></rdf:RDF></metadata></svg>
